<?xml version="1.0" encoding="UTF-8" standalone="no"?>
<!DOCTYPE svg PUBLIC "-//W3C//DTD SVG 1.1//EN"
 "http://www.w3.org/Graphics/SVG/1.1/DTD/svg11.dtd">
<!-- Generated by graphviz version 2.40.1 (20161225.0304)
 -->
<!-- Title: Perl Pages: 1 -->
<svg width="1157pt" height="990pt"
 viewBox="0.00 0.00 1156.92 990.00" xmlns="http://www.w3.org/2000/svg" xmlns:xlink="http://www.w3.org/1999/xlink">
<g id="graph0" class="graph" transform="scale(1 1) rotate(0) translate(4 986)">
<title>Perl</title>
<polygon fill="#ffffff" stroke="transparent" points="-4,4 -4,-986 1152.9209,-986 1152.9209,4 -4,4"/>
<!-- diagnosis -->
<g id="node1" class="node">
<title>diagnosis</title>
<path fill="none" stroke="#000000" d="M560.6553,-666.5C560.6553,-666.5 762.4141,-666.5 762.4141,-666.5 768.4141,-666.5 774.4141,-672.5 774.4141,-678.5 774.4141,-678.5 774.4141,-720.5 774.4141,-720.5 774.4141,-726.5 768.4141,-732.5 762.4141,-732.5 762.4141,-732.5 560.6553,-732.5 560.6553,-732.5 554.6553,-732.5 548.6553,-726.5 548.6553,-720.5 548.6553,-720.5 548.6553,-678.5 548.6553,-678.5 548.6553,-672.5 554.6553,-666.5 560.6553,-666.5"/>
<text text-anchor="middle" x="583.1001" y="-695.3" font-family="Times,serif" font-size="14.00" fill="#000000">diagnosis</text>
<polyline fill="none" stroke="#000000" points="617.5449,-666.5 617.5449,-732.5 "/>
<text text-anchor="middle" x="627.2949" y="-695.3" font-family="Times,serif" font-size="14.00" fill="#000000"> </text>
<polyline fill="none" stroke="#000000" points="637.0449,-666.5 637.0449,-732.5 "/>
<text text-anchor="middle" x="695.9795" y="-717.3" font-family="Times,serif" font-size="14.00" fill="#000000">date_of_diagnosis</text>
<polyline fill="none" stroke="#000000" points="637.0449,-710.5 754.9141,-710.5 "/>
<text text-anchor="middle" x="695.9795" y="-695.3" font-family="Times,serif" font-size="14.00" fill="#000000">disease</text>
<polyline fill="none" stroke="#000000" points="637.0449,-688.5 754.9141,-688.5 "/>
<text text-anchor="middle" x="695.9795" y="-673.3" font-family="Times,serif" font-size="14.00" fill="#000000">is_comorbidity</text>
<polyline fill="none" stroke="#000000" points="754.9141,-666.5 754.9141,-732.5 "/>
<text text-anchor="middle" x="764.6641" y="-695.3" font-family="Times,serif" font-size="14.00" fill="#000000"> </text>
</g>
<!-- participant -->
<g id="node2" class="node">
<title>participant</title>
<path fill="none" stroke="#000000" d="M311.6587,-443.5C311.6587,-443.5 429.4106,-443.5 429.4106,-443.5 435.4106,-443.5 441.4106,-449.5 441.4106,-455.5 441.4106,-455.5 441.4106,-467.5 441.4106,-467.5 441.4106,-473.5 435.4106,-479.5 429.4106,-479.5 429.4106,-479.5 311.6587,-479.5 311.6587,-479.5 305.6587,-479.5 299.6587,-473.5 299.6587,-467.5 299.6587,-467.5 299.6587,-455.5 299.6587,-455.5 299.6587,-449.5 305.6587,-443.5 311.6587,-443.5"/>
<text text-anchor="middle" x="337.5898" y="-457.3" font-family="Times,serif" font-size="14.00" fill="#000000">participant</text>
<polyline fill="none" stroke="#000000" points="375.521,-443.5 375.521,-479.5 "/>
<text text-anchor="middle" x="385.271" y="-457.3" font-family="Times,serif" font-size="14.00" fill="#000000"> </text>
<polyline fill="none" stroke="#000000" points="395.021,-443.5 395.021,-479.5 "/>
<text text-anchor="middle" x="408.4658" y="-457.3" font-family="Times,serif" font-size="14.00" fill="#000000">id</text>
<polyline fill="none" stroke="#000000" points="421.9106,-443.5 421.9106,-479.5 "/>
<text text-anchor="middle" x="431.6606" y="-457.3" font-family="Times,serif" font-size="14.00" fill="#000000"> </text>
</g>
<!-- diagnosis&#45;&gt;participant -->
<g id="edge13" class="edge">
<title>diagnosis&#45;&gt;participant</title>
<path fill="none" stroke="#000000" d="M631.4162,-666.4074C607.5809,-641.0047 572.8685,-605.7051 539.5347,-578 496.9634,-542.6173 443.8321,-507.2803 408.63,-484.9609"/>
<polygon fill="#000000" stroke="#000000" points="410.4101,-481.9458 400.0839,-479.5749 406.6778,-487.8678 410.4101,-481.9458"/>
<text text-anchor="middle" x="552.7969" y="-548.8" font-family="Times,serif" font-size="14.00" fill="#000000">of_participant</text>
</g>
<!-- assay_result -->
<g id="node8" class="node">
<title>assay_result</title>
<path fill="none" stroke="#000000" d="M616.1724,-417.5C616.1724,-417.5 810.897,-417.5 810.897,-417.5 816.897,-417.5 822.897,-423.5 822.897,-429.5 822.897,-429.5 822.897,-493.5 822.897,-493.5 822.897,-499.5 816.897,-505.5 810.897,-505.5 810.897,-505.5 616.1724,-505.5 616.1724,-505.5 610.1724,-505.5 604.1724,-499.5 604.1724,-493.5 604.1724,-493.5 604.1724,-429.5 604.1724,-429.5 604.1724,-423.5 610.1724,-417.5 616.1724,-417.5"/>
<text text-anchor="middle" x="646.3862" y="-457.3" font-family="Times,serif" font-size="14.00" fill="#000000">assay_result</text>
<polyline fill="none" stroke="#000000" points="688.6001,-417.5 688.6001,-505.5 "/>
<text text-anchor="middle" x="698.3501" y="-457.3" font-family="Times,serif" font-size="14.00" fill="#000000"> </text>
<polyline fill="none" stroke="#000000" points="708.1001,-417.5 708.1001,-505.5 "/>
<text text-anchor="middle" x="755.7485" y="-490.3" font-family="Times,serif" font-size="14.00" fill="#000000">id</text>
<polyline fill="none" stroke="#000000" points="708.1001,-483.5 803.397,-483.5 "/>
<text text-anchor="middle" x="755.7485" y="-468.3" font-family="Times,serif" font-size="14.00" fill="#000000">readout_type</text>
<polyline fill="none" stroke="#000000" points="708.1001,-461.5 803.397,-461.5 "/>
<text text-anchor="middle" x="755.7485" y="-446.3" font-family="Times,serif" font-size="14.00" fill="#000000">readout_value</text>
<polyline fill="none" stroke="#000000" points="708.1001,-439.5 803.397,-439.5 "/>
<text text-anchor="middle" x="755.7485" y="-424.3" font-family="Times,serif" font-size="14.00" fill="#000000">type</text>
<polyline fill="none" stroke="#000000" points="803.397,-417.5 803.397,-505.5 "/>
<text text-anchor="middle" x="813.147" y="-457.3" font-family="Times,serif" font-size="14.00" fill="#000000"> </text>
</g>
<!-- diagnosis&#45;&gt;assay_result -->
<g id="edge10" class="edge">
<title>diagnosis&#45;&gt;assay_result</title>
<path fill="none" stroke="#000000" d="M668.765,-666.4071C677.2927,-627.3767 691.5885,-561.9458 701.7296,-515.5307"/>
<polygon fill="#000000" stroke="#000000" points="705.1757,-516.1553 703.8909,-505.6386 698.337,-514.6611 705.1757,-516.1553"/>
<text text-anchor="middle" x="755.3623" y="-548.8" font-family="Times,serif" font-size="14.00" fill="#000000">has_supporting_result</text>
</g>
<!-- study -->
<g id="node3" class="node">
<title>study</title>
<path fill="none" stroke="#000000" d="M212.5449,-278.5C212.5449,-278.5 364.5244,-278.5 364.5244,-278.5 370.5244,-278.5 376.5244,-284.5 376.5244,-290.5 376.5244,-290.5 376.5244,-332.5 376.5244,-332.5 376.5244,-338.5 370.5244,-344.5 364.5244,-344.5 364.5244,-344.5 212.5449,-344.5 212.5449,-344.5 206.5449,-344.5 200.5449,-338.5 200.5449,-332.5 200.5449,-332.5 200.5449,-290.5 200.5449,-290.5 200.5449,-284.5 206.5449,-278.5 212.5449,-278.5"/>
<text text-anchor="middle" x="223.7139" y="-307.3" font-family="Times,serif" font-size="14.00" fill="#000000">study</text>
<polyline fill="none" stroke="#000000" points="246.8828,-278.5 246.8828,-344.5 "/>
<text text-anchor="middle" x="256.6328" y="-307.3" font-family="Times,serif" font-size="14.00" fill="#000000"> </text>
<polyline fill="none" stroke="#000000" points="266.3828,-278.5 266.3828,-344.5 "/>
<text text-anchor="middle" x="311.7036" y="-329.3" font-family="Times,serif" font-size="14.00" fill="#000000">id</text>
<polyline fill="none" stroke="#000000" points="266.3828,-322.5 357.0244,-322.5 "/>
<text text-anchor="middle" x="311.7036" y="-307.3" font-family="Times,serif" font-size="14.00" fill="#000000">irb_approved</text>
<polyline fill="none" stroke="#000000" points="266.3828,-300.5 357.0244,-300.5 "/>
<text text-anchor="middle" x="311.7036" y="-285.3" font-family="Times,serif" font-size="14.00" fill="#000000">protocol</text>
<polyline fill="none" stroke="#000000" points="357.0244,-278.5 357.0244,-344.5 "/>
<text text-anchor="middle" x="366.7744" y="-307.3" font-family="Times,serif" font-size="14.00" fill="#000000"> </text>
</g>
<!-- participant&#45;&gt;study -->
<g id="edge2" class="edge">
<title>participant&#45;&gt;study</title>
<path fill="none" stroke="#000000" d="M360.6436,-443.4065C348.5607,-421.3038 327.7334,-383.205 311.5594,-353.6184"/>
<polygon fill="#000000" stroke="#000000" points="314.5719,-351.8324 306.7041,-344.7368 308.4298,-355.1901 314.5719,-351.8324"/>
<text text-anchor="middle" x="357.1313" y="-365.8" font-family="Times,serif" font-size="14.00" fill="#000000">enrolled_for</text>
</g>
<!-- project -->
<g id="node7" class="node">
<title>project</title>
<path fill="none" stroke="#000000" d="M333.2793,-161.5C333.2793,-161.5 493.79,-161.5 493.79,-161.5 499.79,-161.5 505.79,-167.5 505.79,-173.5 505.79,-173.5 505.79,-215.5 505.79,-215.5 505.79,-221.5 499.79,-227.5 493.79,-227.5 493.79,-227.5 333.2793,-227.5 333.2793,-227.5 327.2793,-227.5 321.2793,-221.5 321.2793,-215.5 321.2793,-215.5 321.2793,-173.5 321.2793,-173.5 321.2793,-167.5 327.2793,-161.5 333.2793,-161.5"/>
<text text-anchor="middle" x="348.7139" y="-190.3" font-family="Times,serif" font-size="14.00" fill="#000000">project</text>
<polyline fill="none" stroke="#000000" points="376.1484,-161.5 376.1484,-227.5 "/>
<text text-anchor="middle" x="385.8984" y="-190.3" font-family="Times,serif" font-size="14.00" fill="#000000"> </text>
<polyline fill="none" stroke="#000000" points="395.6484,-161.5 395.6484,-227.5 "/>
<text text-anchor="middle" x="440.9692" y="-212.3" font-family="Times,serif" font-size="14.00" fill="#000000">id</text>
<polyline fill="none" stroke="#000000" points="395.6484,-205.5 486.29,-205.5 "/>
<text text-anchor="middle" x="440.9692" y="-190.3" font-family="Times,serif" font-size="14.00" fill="#000000">irb_approved</text>
<polyline fill="none" stroke="#000000" points="395.6484,-183.5 486.29,-183.5 "/>
<text text-anchor="middle" x="440.9692" y="-168.3" font-family="Times,serif" font-size="14.00" fill="#000000">protocol</text>
<polyline fill="none" stroke="#000000" points="486.29,-161.5 486.29,-227.5 "/>
<text text-anchor="middle" x="496.04" y="-190.3" font-family="Times,serif" font-size="14.00" fill="#000000"> </text>
</g>
<!-- participant&#45;&gt;project -->
<g id="edge1" class="edge">
<title>participant&#45;&gt;project</title>
<path fill="none" stroke="#000000" d="M377.0146,-443.2875C382.7813,-426.3408 390.9868,-400.2728 395.5347,-377 404.7438,-329.8736 409.3496,-274.9319 411.5796,-237.7405"/>
<polygon fill="#000000" stroke="#000000" points="415.0747,-237.925 412.1475,-227.7426 408.086,-237.528 415.0747,-237.925"/>
<text text-anchor="middle" x="444.1313" y="-307.3" font-family="Times,serif" font-size="14.00" fill="#000000">enrolled_for</text>
</g>
<!-- cohort -->
<g id="node9" class="node">
<title>cohort</title>
<path fill="none" stroke="#000000" d="M512.0483,-278.5C512.0483,-278.5 657.021,-278.5 657.021,-278.5 663.021,-278.5 669.021,-284.5 669.021,-290.5 669.021,-290.5 669.021,-332.5 669.021,-332.5 669.021,-338.5 663.021,-344.5 657.021,-344.5 657.021,-344.5 512.0483,-344.5 512.0483,-344.5 506.0483,-344.5 500.0483,-338.5 500.0483,-332.5 500.0483,-332.5 500.0483,-290.5 500.0483,-290.5 500.0483,-284.5 506.0483,-278.5 512.0483,-278.5"/>
<text text-anchor="middle" x="525.9312" y="-307.3" font-family="Times,serif" font-size="14.00" fill="#000000">cohort</text>
<polyline fill="none" stroke="#000000" points="551.814,-278.5 551.814,-344.5 "/>
<text text-anchor="middle" x="561.564" y="-307.3" font-family="Times,serif" font-size="14.00" fill="#000000"> </text>
<polyline fill="none" stroke="#000000" points="571.314,-278.5 571.314,-344.5 "/>
<text text-anchor="middle" x="610.4175" y="-329.3" font-family="Times,serif" font-size="14.00" fill="#000000">description</text>
<polyline fill="none" stroke="#000000" points="571.314,-322.5 649.521,-322.5 "/>
<text text-anchor="middle" x="610.4175" y="-307.3" font-family="Times,serif" font-size="14.00" fill="#000000">id</text>
<polyline fill="none" stroke="#000000" points="571.314,-300.5 649.521,-300.5 "/>
<text text-anchor="middle" x="610.4175" y="-285.3" font-family="Times,serif" font-size="14.00" fill="#000000">name</text>
<polyline fill="none" stroke="#000000" points="649.521,-278.5 649.521,-344.5 "/>
<text text-anchor="middle" x="659.271" y="-307.3" font-family="Times,serif" font-size="14.00" fill="#000000"> </text>
</g>
<!-- participant&#45;&gt;cohort -->
<g id="edge16" class="edge">
<title>participant&#45;&gt;cohort</title>
<path fill="none" stroke="#000000" d="M396.3481,-443.4065C428.9686,-420.5416 486.0112,-380.5585 528.7675,-350.5891"/>
<polygon fill="#000000" stroke="#000000" points="530.9371,-353.3426 537.1169,-344.7368 526.9192,-347.6105 530.9371,-353.3426"/>
<text text-anchor="middle" x="536.7485" y="-365.8" font-family="Times,serif" font-size="14.00" fill="#000000">of_cohort</text>
</g>
<!-- center -->
<g id="node11" class="node">
<title>center</title>
<path fill="none" stroke="#000000" d="M148.5103,-.5C148.5103,-.5 352.5591,-.5 352.5591,-.5 358.5591,-.5 364.5591,-6.5 364.5591,-12.5 364.5591,-12.5 364.5591,-98.5 364.5591,-98.5 364.5591,-104.5 358.5591,-110.5 352.5591,-110.5 352.5591,-110.5 148.5103,-110.5 148.5103,-110.5 142.5103,-110.5 136.5103,-104.5 136.5103,-98.5 136.5103,-98.5 136.5103,-12.5 136.5103,-12.5 136.5103,-6.5 142.5103,-.5 148.5103,-.5"/>
<text text-anchor="middle" x="161.6069" y="-51.3" font-family="Times,serif" font-size="14.00" fill="#000000">center</text>
<polyline fill="none" stroke="#000000" points="186.7036,-.5 186.7036,-110.5 "/>
<text text-anchor="middle" x="196.4536" y="-51.3" font-family="Times,serif" font-size="14.00" fill="#000000"> </text>
<polyline fill="none" stroke="#000000" points="206.2036,-.5 206.2036,-110.5 "/>
<text text-anchor="middle" x="275.6313" y="-95.3" font-family="Times,serif" font-size="14.00" fill="#000000">center_type</text>
<polyline fill="none" stroke="#000000" points="206.2036,-88.5 345.0591,-88.5 "/>
<text text-anchor="middle" x="275.6313" y="-73.3" font-family="Times,serif" font-size="14.00" fill="#000000">id</text>
<polyline fill="none" stroke="#000000" points="206.2036,-66.5 345.0591,-66.5 "/>
<text text-anchor="middle" x="275.6313" y="-51.3" font-family="Times,serif" font-size="14.00" fill="#000000">name</text>
<polyline fill="none" stroke="#000000" points="206.2036,-44.5 345.0591,-44.5 "/>
<text text-anchor="middle" x="275.6313" y="-29.3" font-family="Times,serif" font-size="14.00" fill="#000000">principal_investigator</text>
<polyline fill="none" stroke="#000000" points="206.2036,-22.5 345.0591,-22.5 "/>
<text text-anchor="middle" x="275.6313" y="-7.3" font-family="Times,serif" font-size="14.00" fill="#000000">short_name</text>
<polyline fill="none" stroke="#000000" points="345.0591,-.5 345.0591,-110.5 "/>
<text text-anchor="middle" x="354.8091" y="-51.3" font-family="Times,serif" font-size="14.00" fill="#000000"> </text>
</g>
<!-- participant&#45;&gt;center -->
<g id="edge5" class="edge">
<title>participant&#45;&gt;center</title>
<path fill="none" stroke="#000000" d="M317.9442,-443.4439C275.326,-425.6956 218.137,-394.0542 191.5347,-345 153.0999,-274.1271 184.1042,-181.1481 213.7671,-119.9267"/>
<polygon fill="#000000" stroke="#000000" points="217.0074,-121.2706 218.3151,-110.7567 210.7363,-118.1603 217.0074,-121.2706"/>
<text text-anchor="middle" x="207.021" y="-248.8" font-family="Times,serif" font-size="14.00" fill="#000000">enrolled_at</text>
</g>
<!-- study&#45;&gt;project -->
<g id="edge9" class="edge">
<title>study&#45;&gt;project</title>
<path fill="none" stroke="#000000" d="M312.2177,-278.3105C320.7022,-267.4529 330.7245,-255.6998 341.0034,-246 345.3207,-241.9259 349.9767,-237.9142 354.7724,-234.038"/>
<polygon fill="#000000" stroke="#000000" points="357.2155,-236.5708 362.9398,-227.6555 352.9052,-231.0552 357.2155,-236.5708"/>
<text text-anchor="middle" x="370.3003" y="-248.8" font-family="Times,serif" font-size="14.00" fill="#000000">of_project</text>
</g>
<!-- study&#45;&gt;center -->
<g id="edge3" class="edge">
<title>study&#45;&gt;center</title>
<path fill="none" stroke="#000000" d="M274.6917,-278.3678C269.0123,-263.2728 263.0008,-245.0104 259.6792,-228 252.8592,-193.0741 250.3968,-153.4652 249.7177,-121.0179"/>
<polygon fill="#000000" stroke="#000000" points="253.2131,-120.6936 249.5566,-110.7498 246.214,-120.8035 253.2131,-120.6936"/>
<text text-anchor="middle" x="286.9624" y="-190.3" font-family="Times,serif" font-size="14.00" fill="#000000">of_center</text>
</g>
<!-- assay_run -->
<g id="node4" class="node">
<title>assay_run</title>
<path fill="none" stroke="#000000" d="M804.731,-644.5C804.731,-644.5 996.3384,-644.5 996.3384,-644.5 1002.3384,-644.5 1008.3384,-650.5 1008.3384,-656.5 1008.3384,-656.5 1008.3384,-742.5 1008.3384,-742.5 1008.3384,-748.5 1002.3384,-754.5 996.3384,-754.5 996.3384,-754.5 804.731,-754.5 804.731,-754.5 798.731,-754.5 792.731,-748.5 792.731,-742.5 792.731,-742.5 792.731,-656.5 792.731,-656.5 792.731,-650.5 798.731,-644.5 804.731,-644.5"/>
<text text-anchor="middle" x="828.7241" y="-695.3" font-family="Times,serif" font-size="14.00" fill="#000000">assay_run</text>
<polyline fill="none" stroke="#000000" points="864.7173,-644.5 864.7173,-754.5 "/>
<text text-anchor="middle" x="874.4673" y="-695.3" font-family="Times,serif" font-size="14.00" fill="#000000"> </text>
<polyline fill="none" stroke="#000000" points="884.2173,-644.5 884.2173,-754.5 "/>
<text text-anchor="middle" x="936.5278" y="-739.3" font-family="Times,serif" font-size="14.00" fill="#000000">date_performed</text>
<polyline fill="none" stroke="#000000" points="884.2173,-732.5 988.8384,-732.5 "/>
<text text-anchor="middle" x="936.5278" y="-717.3" font-family="Times,serif" font-size="14.00" fill="#000000">id</text>
<polyline fill="none" stroke="#000000" points="884.2173,-710.5 988.8384,-710.5 "/>
<text text-anchor="middle" x="936.5278" y="-695.3" font-family="Times,serif" font-size="14.00" fill="#000000">is_clia</text>
<polyline fill="none" stroke="#000000" points="884.2173,-688.5 988.8384,-688.5 "/>
<text text-anchor="middle" x="936.5278" y="-673.3" font-family="Times,serif" font-size="14.00" fill="#000000">operator</text>
<polyline fill="none" stroke="#000000" points="884.2173,-666.5 988.8384,-666.5 "/>
<text text-anchor="middle" x="936.5278" y="-651.3" font-family="Times,serif" font-size="14.00" fill="#000000">variances</text>
<polyline fill="none" stroke="#000000" points="988.8384,-644.5 988.8384,-754.5 "/>
<text text-anchor="middle" x="998.5884" y="-695.3" font-family="Times,serif" font-size="14.00" fill="#000000"> </text>
</g>
<!-- assay -->
<g id="node6" class="node">
<title>assay</title>
<path fill="none" stroke="#000000" d="M932.562,-395.5C932.562,-395.5 1084.5073,-395.5 1084.5073,-395.5 1090.5073,-395.5 1096.5073,-401.5 1096.5073,-407.5 1096.5073,-407.5 1096.5073,-515.5 1096.5073,-515.5 1096.5073,-521.5 1090.5073,-527.5 1084.5073,-527.5 1084.5073,-527.5 932.562,-527.5 932.562,-527.5 926.562,-527.5 920.562,-521.5 920.562,-515.5 920.562,-515.5 920.562,-407.5 920.562,-407.5 920.562,-401.5 926.562,-395.5 932.562,-395.5"/>
<text text-anchor="middle" x="943.7241" y="-457.3" font-family="Times,serif" font-size="14.00" fill="#000000">assay</text>
<polyline fill="none" stroke="#000000" points="966.8862,-395.5 966.8862,-527.5 "/>
<text text-anchor="middle" x="976.6362" y="-457.3" font-family="Times,serif" font-size="14.00" fill="#000000"> </text>
<polyline fill="none" stroke="#000000" points="986.3862,-395.5 986.3862,-527.5 "/>
<text text-anchor="middle" x="1031.6968" y="-512.3" font-family="Times,serif" font-size="14.00" fill="#000000">agent</text>
<polyline fill="none" stroke="#000000" points="986.3862,-505.5 1077.0073,-505.5 "/>
<text text-anchor="middle" x="1031.6968" y="-490.3" font-family="Times,serif" font-size="14.00" fill="#000000">antigen</text>
<polyline fill="none" stroke="#000000" points="986.3862,-483.5 1077.0073,-483.5 "/>
<text text-anchor="middle" x="1031.6968" y="-468.3" font-family="Times,serif" font-size="14.00" fill="#000000">assay_type</text>
<polyline fill="none" stroke="#000000" points="986.3862,-461.5 1077.0073,-461.5 "/>
<text text-anchor="middle" x="1031.6968" y="-446.3" font-family="Times,serif" font-size="14.00" fill="#000000">id</text>
<polyline fill="none" stroke="#000000" points="986.3862,-439.5 1077.0073,-439.5 "/>
<text text-anchor="middle" x="1031.6968" y="-424.3" font-family="Times,serif" font-size="14.00" fill="#000000">manufacturer</text>
<polyline fill="none" stroke="#000000" points="986.3862,-417.5 1077.0073,-417.5 "/>
<text text-anchor="middle" x="1031.6968" y="-402.3" font-family="Times,serif" font-size="14.00" fill="#000000">version</text>
<polyline fill="none" stroke="#000000" points="1077.0073,-395.5 1077.0073,-527.5 "/>
<text text-anchor="middle" x="1086.7573" y="-457.3" font-family="Times,serif" font-size="14.00" fill="#000000"> </text>
</g>
<!-- assay_run&#45;&gt;assay -->
<g id="edge7" class="edge">
<title>assay_run&#45;&gt;assay</title>
<path fill="none" stroke="#000000" d="M925.5835,-644.2998C940.0555,-612.4079 958.4662,-571.8361 974.2646,-537.021"/>
<polygon fill="#000000" stroke="#000000" points="977.4876,-538.3884 978.4327,-527.8358 971.1132,-535.4958 977.4876,-538.3884"/>
<text text-anchor="middle" x="991.0278" y="-548.8" font-family="Times,serif" font-size="14.00" fill="#000000">of_assay</text>
</g>
<!-- assay_run&#45;&gt;assay_result -->
<g id="edge6" class="edge">
<title>assay_run&#45;&gt;assay_result</title>
<path fill="none" stroke="#000000" d="M878.6033,-644.2471C864.7483,-613.4082 844.8694,-575.4008 820.5347,-546 810.6301,-534.0335 798.7721,-522.6493 786.6131,-512.3352"/>
<polygon fill="#000000" stroke="#000000" points="788.5366,-509.3846 778.597,-505.7166 784.0798,-514.7824 788.5366,-509.3846"/>
<text text-anchor="middle" x="875.5796" y="-548.8" font-family="Times,serif" font-size="14.00" fill="#000000">has_assay_result</text>
</g>
<!-- demographic -->
<g id="node5" class="node">
<title>demographic</title>
<path fill="none" stroke="#000000" d="M12,-655.5C12,-655.5 181.0693,-655.5 181.0693,-655.5 187.0693,-655.5 193.0693,-661.5 193.0693,-667.5 193.0693,-667.5 193.0693,-731.5 193.0693,-731.5 193.0693,-737.5 187.0693,-743.5 181.0693,-743.5 181.0693,-743.5 12,-743.5 12,-743.5 6,-743.5 0,-737.5 0,-731.5 0,-731.5 0,-667.5 0,-667.5 0,-661.5 6,-655.5 12,-655.5"/>
<text text-anchor="middle" x="44.5415" y="-695.3" font-family="Times,serif" font-size="14.00" fill="#000000">demographic</text>
<polyline fill="none" stroke="#000000" points="89.083,-655.5 89.083,-743.5 "/>
<text text-anchor="middle" x="98.833" y="-695.3" font-family="Times,serif" font-size="14.00" fill="#000000"> </text>
<polyline fill="none" stroke="#000000" points="108.583,-655.5 108.583,-743.5 "/>
<text text-anchor="middle" x="141.0762" y="-728.3" font-family="Times,serif" font-size="14.00" fill="#000000">age</text>
<polyline fill="none" stroke="#000000" points="108.583,-721.5 173.5693,-721.5 "/>
<text text-anchor="middle" x="141.0762" y="-706.3" font-family="Times,serif" font-size="14.00" fill="#000000">ethnicity</text>
<polyline fill="none" stroke="#000000" points="108.583,-699.5 173.5693,-699.5 "/>
<text text-anchor="middle" x="141.0762" y="-684.3" font-family="Times,serif" font-size="14.00" fill="#000000">gender</text>
<polyline fill="none" stroke="#000000" points="108.583,-677.5 173.5693,-677.5 "/>
<text text-anchor="middle" x="141.0762" y="-662.3" font-family="Times,serif" font-size="14.00" fill="#000000">race</text>
<polyline fill="none" stroke="#000000" points="173.5693,-655.5 173.5693,-743.5 "/>
<text text-anchor="middle" x="183.3193" y="-695.3" font-family="Times,serif" font-size="14.00" fill="#000000"> </text>
</g>
<!-- demographic&#45;&gt;participant -->
<g id="edge15" class="edge">
<title>demographic&#45;&gt;participant</title>
<path fill="none" stroke="#000000" d="M130.0295,-655.4656C149.533,-631.2469 175.3778,-601.4474 201.5347,-578 242.3867,-541.3797 295.2237,-506.6717 330.8561,-484.82"/>
<polygon fill="#000000" stroke="#000000" points="332.8005,-487.734 339.5268,-479.5481 329.1639,-481.7528 332.8005,-487.734"/>
<text text-anchor="middle" x="275.7969" y="-548.8" font-family="Times,serif" font-size="14.00" fill="#000000">of_participant</text>
</g>
<!-- project&#45;&gt;center -->
<g id="edge4" class="edge">
<title>project&#45;&gt;center</title>
<path fill="none" stroke="#000000" d="M374.4921,-161.206C359.0555,-148.0423 340.7996,-132.4744 323.1111,-117.3904"/>
<polygon fill="#000000" stroke="#000000" points="324.9162,-114.3299 315.0361,-110.5043 320.3741,-119.6562 324.9162,-114.3299"/>
<text text-anchor="middle" x="377.9624" y="-131.8" font-family="Times,serif" font-size="14.00" fill="#000000">of_center</text>
</g>
<!-- biospecimen -->
<g id="node10" class="node">
<title>biospecimen</title>
<path fill="none" stroke="#000000" d="M222.6001,-578.5C222.6001,-578.5 518.4692,-578.5 518.4692,-578.5 524.4692,-578.5 530.4692,-584.5 530.4692,-590.5 530.4692,-590.5 530.4692,-808.5 530.4692,-808.5 530.4692,-814.5 524.4692,-820.5 518.4692,-820.5 518.4692,-820.5 222.6001,-820.5 222.6001,-820.5 216.6001,-820.5 210.6001,-814.5 210.6001,-808.5 210.6001,-808.5 210.6001,-590.5 210.6001,-590.5 210.6001,-584.5 216.6001,-578.5 222.6001,-578.5"/>
<text text-anchor="middle" x="253.9795" y="-695.3" font-family="Times,serif" font-size="14.00" fill="#000000">biospecimen</text>
<polyline fill="none" stroke="#000000" points="297.3589,-578.5 297.3589,-820.5 "/>
<text text-anchor="middle" x="307.1089" y="-695.3" font-family="Times,serif" font-size="14.00" fill="#000000"> </text>
<polyline fill="none" stroke="#000000" points="316.8589,-578.5 316.8589,-820.5 "/>
<text text-anchor="middle" x="413.9141" y="-805.3" font-family="Times,serif" font-size="14.00" fill="#000000">date_last_aliquotted</text>
<polyline fill="none" stroke="#000000" points="316.8589,-798.5 510.9692,-798.5 "/>
<text text-anchor="middle" x="413.9141" y="-783.3" font-family="Times,serif" font-size="14.00" fill="#000000">date_of_collection</text>
<polyline fill="none" stroke="#000000" points="316.8589,-776.5 510.9692,-776.5 "/>
<text text-anchor="middle" x="413.9141" y="-761.3" font-family="Times,serif" font-size="14.00" fill="#000000">date_of_processing</text>
<polyline fill="none" stroke="#000000" points="316.8589,-754.5 510.9692,-754.5 "/>
<text text-anchor="middle" x="413.9141" y="-739.3" font-family="Times,serif" font-size="14.00" fill="#000000">date_of_swab_collection</text>
<polyline fill="none" stroke="#000000" points="316.8589,-732.5 510.9692,-732.5 "/>
<text text-anchor="middle" x="413.9141" y="-717.3" font-family="Times,serif" font-size="14.00" fill="#000000">days_post_symptom_onset</text>
<polyline fill="none" stroke="#000000" points="316.8589,-710.5 510.9692,-710.5 "/>
<text text-anchor="middle" x="413.9141" y="-695.3" font-family="Times,serif" font-size="14.00" fill="#000000">days_post_symptom_resolution</text>
<polyline fill="none" stroke="#000000" points="316.8589,-688.5 510.9692,-688.5 "/>
<text text-anchor="middle" x="413.9141" y="-673.3" font-family="Times,serif" font-size="14.00" fill="#000000">freeze_thaw_cycle</text>
<polyline fill="none" stroke="#000000" points="316.8589,-666.5 510.9692,-666.5 "/>
<text text-anchor="middle" x="413.9141" y="-651.3" font-family="Times,serif" font-size="14.00" fill="#000000">group</text>
<polyline fill="none" stroke="#000000" points="316.8589,-644.5 510.9692,-644.5 "/>
<text text-anchor="middle" x="413.9141" y="-629.3" font-family="Times,serif" font-size="14.00" fill="#000000">id</text>
<polyline fill="none" stroke="#000000" points="316.8589,-622.5 510.9692,-622.5 "/>
<text text-anchor="middle" x="413.9141" y="-607.3" font-family="Times,serif" font-size="14.00" fill="#000000">initial_volume</text>
<polyline fill="none" stroke="#000000" points="316.8589,-600.5 510.9692,-600.5 "/>
<text text-anchor="middle" x="413.9141" y="-585.3" font-family="Times,serif" font-size="14.00" fill="#000000">sample_type</text>
<polyline fill="none" stroke="#000000" points="510.9692,-578.5 510.9692,-820.5 "/>
<text text-anchor="middle" x="520.7192" y="-695.3" font-family="Times,serif" font-size="14.00" fill="#000000"> </text>
</g>
<!-- biospecimen&#45;&gt;participant -->
<g id="edge14" class="edge">
<title>biospecimen&#45;&gt;participant</title>
<path fill="none" stroke="#000000" d="M370.5347,-578.4083C370.5347,-545.2502 370.5347,-512.3087 370.5347,-489.8856"/>
<polygon fill="#000000" stroke="#000000" points="374.0348,-489.7679 370.5347,-479.768 367.0348,-489.768 374.0348,-489.7679"/>
<text text-anchor="middle" x="409.7969" y="-548.8" font-family="Times,serif" font-size="14.00" fill="#000000">of_participant</text>
</g>
<!-- aliquot -->
<g id="node12" class="node">
<title>aliquot</title>
<path fill="none" stroke="#000000" d="M557.7656,-893.5C557.7656,-893.5 725.3037,-893.5 725.3037,-893.5 731.3037,-893.5 737.3037,-899.5 737.3037,-905.5 737.3037,-905.5 737.3037,-947.5 737.3037,-947.5 737.3037,-953.5 731.3037,-959.5 725.3037,-959.5 725.3037,-959.5 557.7656,-959.5 557.7656,-959.5 551.7656,-959.5 545.7656,-953.5 545.7656,-947.5 545.7656,-947.5 545.7656,-905.5 545.7656,-905.5 545.7656,-899.5 551.7656,-893.5 557.7656,-893.5"/>
<text text-anchor="middle" x="573.207" y="-922.3" font-family="Times,serif" font-size="14.00" fill="#000000">aliquot</text>
<polyline fill="none" stroke="#000000" points="600.6484,-893.5 600.6484,-959.5 "/>
<text text-anchor="middle" x="610.3984" y="-922.3" font-family="Times,serif" font-size="14.00" fill="#000000"> </text>
<polyline fill="none" stroke="#000000" points="620.1484,-893.5 620.1484,-959.5 "/>
<text text-anchor="middle" x="668.9761" y="-944.3" font-family="Times,serif" font-size="14.00" fill="#000000">aliquot_type</text>
<polyline fill="none" stroke="#000000" points="620.1484,-937.5 717.8037,-937.5 "/>
<text text-anchor="middle" x="668.9761" y="-922.3" font-family="Times,serif" font-size="14.00" fill="#000000">id</text>
<polyline fill="none" stroke="#000000" points="620.1484,-915.5 717.8037,-915.5 "/>
<text text-anchor="middle" x="668.9761" y="-900.3" font-family="Times,serif" font-size="14.00" fill="#000000">initial_volume</text>
<polyline fill="none" stroke="#000000" points="717.8037,-893.5 717.8037,-959.5 "/>
<text text-anchor="middle" x="727.5537" y="-922.3" font-family="Times,serif" font-size="14.00" fill="#000000"> </text>
</g>
<!-- aliquot&#45;&gt;assay_run -->
<g id="edge18" class="edge">
<title>aliquot&#45;&gt;assay_run</title>
<path fill="none" stroke="#000000" d="M690.071,-893.4597C718.2447,-873.5504 753.9068,-847.0707 783.5347,-821 804.1983,-802.8172 825.4605,-781.6076 844.0961,-762.0449"/>
<polygon fill="#000000" stroke="#000000" points="846.7735,-764.3076 851.103,-754.6377 841.6883,-759.4971 846.7735,-764.3076"/>
<text text-anchor="middle" x="797.8589" y="-841.8" font-family="Times,serif" font-size="14.00" fill="#000000">of_assay_run</text>
</g>
<!-- aliquot&#45;&gt;biospecimen -->
<g id="edge11" class="edge">
<title>aliquot&#45;&gt;biospecimen</title>
<path fill="none" stroke="#000000" d="M565.3836,-893.3635C543.5618,-882.1304 520.4622,-868.4572 501.1138,-853 491.5154,-845.332 482.0935,-836.8797 472.9802,-828.0025"/>
<polygon fill="#000000" stroke="#000000" points="475.2977,-825.371 465.7402,-820.7989 470.3605,-830.3333 475.2977,-825.371"/>
<text text-anchor="middle" x="546.2451" y="-841.8" font-family="Times,serif" font-size="14.00" fill="#000000">of_biospecimen</text>
</g>
<!-- sop -->
<g id="node13" class="node">
<title>sop</title>
<path fill="none" stroke="#000000" d="M830.7656,-871.5C830.7656,-871.5 970.3037,-871.5 970.3037,-871.5 976.3037,-871.5 982.3037,-877.5 982.3037,-883.5 982.3037,-883.5 982.3037,-969.5 982.3037,-969.5 982.3037,-975.5 976.3037,-981.5 970.3037,-981.5 970.3037,-981.5 830.7656,-981.5 830.7656,-981.5 824.7656,-981.5 818.7656,-975.5 818.7656,-969.5 818.7656,-969.5 818.7656,-883.5 818.7656,-883.5 818.7656,-877.5 824.7656,-871.5 830.7656,-871.5"/>
<text text-anchor="middle" x="836.4897" y="-922.3" font-family="Times,serif" font-size="14.00" fill="#000000">sop</text>
<polyline fill="none" stroke="#000000" points="854.2139,-871.5 854.2139,-981.5 "/>
<text text-anchor="middle" x="863.9639" y="-922.3" font-family="Times,serif" font-size="14.00" fill="#000000"> </text>
<polyline fill="none" stroke="#000000" points="873.7139,-871.5 873.7139,-981.5 "/>
<text text-anchor="middle" x="918.2588" y="-966.3" font-family="Times,serif" font-size="14.00" fill="#000000">id</text>
<polyline fill="none" stroke="#000000" points="873.7139,-959.5 962.8037,-959.5 "/>
<text text-anchor="middle" x="918.2588" y="-944.3" font-family="Times,serif" font-size="14.00" fill="#000000">name</text>
<polyline fill="none" stroke="#000000" points="873.7139,-937.5 962.8037,-937.5 "/>
<text text-anchor="middle" x="918.2588" y="-922.3" font-family="Times,serif" font-size="14.00" fill="#000000">process_type</text>
<polyline fill="none" stroke="#000000" points="873.7139,-915.5 962.8037,-915.5 "/>
<text text-anchor="middle" x="918.2588" y="-900.3" font-family="Times,serif" font-size="14.00" fill="#000000">url</text>
<polyline fill="none" stroke="#000000" points="873.7139,-893.5 962.8037,-893.5 "/>
<text text-anchor="middle" x="918.2588" y="-878.3" font-family="Times,serif" font-size="14.00" fill="#000000">version</text>
<polyline fill="none" stroke="#000000" points="962.8037,-871.5 962.8037,-981.5 "/>
<text text-anchor="middle" x="972.5537" y="-922.3" font-family="Times,serif" font-size="14.00" fill="#000000"> </text>
</g>
<!-- sop&#45;&gt;assay_run -->
<g id="edge17" class="edge">
<title>sop&#45;&gt;assay_run</title>
<path fill="none" stroke="#000000" d="M900.5347,-871.2598C900.5347,-839.1481 900.5347,-798.5003 900.5347,-764.8094"/>
<polygon fill="#000000" stroke="#000000" points="904.0348,-764.594 900.5347,-754.5941 897.0348,-764.5941 904.0348,-764.594"/>
<text text-anchor="middle" x="937.8589" y="-841.8" font-family="Times,serif" font-size="14.00" fill="#000000">of_assay_run</text>
</g>
<!-- sop&#45;&gt;assay -->
<g id="edge8" class="edge">
<title>sop&#45;&gt;assay</title>
<path fill="none" stroke="#000000" d="M980.0847,-871.4946C995.2408,-856.9609 1009.0141,-839.9601 1017.5347,-821 1058.3136,-730.2579 1044.8404,-613.1961 1028.8536,-537.7365"/>
<polygon fill="#000000" stroke="#000000" points="1032.2433,-536.853 1026.6898,-527.8303 1025.4045,-538.3468 1032.2433,-536.853"/>
<text text-anchor="middle" x="1068.0278" y="-695.3" font-family="Times,serif" font-size="14.00" fill="#000000">of_assay</text>
</g>
<!-- sop&#45;&gt;biospecimen -->
<g id="edge12" class="edge">
<title>sop&#45;&gt;biospecimen</title>
<path fill="none" stroke="#000000" d="M818.5832,-894.2616C795.5152,-885.9295 770.2455,-877.4892 746.5347,-871 705.3294,-859.723 693.6833,-862.8499 652.1138,-853 629.0797,-847.5421 574.1151,-834.8849 540.1412,-820.8117"/>
<polygon fill="#000000" stroke="#000000" points="541.3022,-817.4969 530.7447,-816.6083 538.4438,-823.8867 541.3022,-817.4969"/>
<text text-anchor="middle" x="697.2451" y="-841.8" font-family="Times,serif" font-size="14.00" fill="#000000">of_biospecimen</text>
</g>
<!-- workflow -->
<g id="node14" class="node">
<title>workflow</title>
<path fill="none" stroke="#000000" d="M1012.1484,-904.5C1012.1484,-904.5 1136.9209,-904.5 1136.9209,-904.5 1142.9209,-904.5 1148.9209,-910.5 1148.9209,-916.5 1148.9209,-916.5 1148.9209,-936.5 1148.9209,-936.5 1148.9209,-942.5 1142.9209,-948.5 1136.9209,-948.5 1136.9209,-948.5 1012.1484,-948.5 1012.1484,-948.5 1006.1484,-948.5 1000.1484,-942.5 1000.1484,-936.5 1000.1484,-936.5 1000.1484,-916.5 1000.1484,-916.5 1000.1484,-910.5 1006.1484,-904.5 1012.1484,-904.5"/>
<text text-anchor="middle" x="1034.9829" y="-922.3" font-family="Times,serif" font-size="14.00" fill="#000000">workflow</text>
<polyline fill="none" stroke="#000000" points="1069.8174,-904.5 1069.8174,-948.5 "/>
<text text-anchor="middle" x="1079.5674" y="-922.3" font-family="Times,serif" font-size="14.00" fill="#000000"> </text>
<polyline fill="none" stroke="#000000" points="1089.3174,-904.5 1089.3174,-948.5 "/>
<text text-anchor="middle" x="1109.3691" y="-933.3" font-family="Times,serif" font-size="14.00" fill="#000000">id</text>
<polyline fill="none" stroke="#000000" points="1089.3174,-926.5 1129.4209,-926.5 "/>
<text text-anchor="middle" x="1109.3691" y="-911.3" font-family="Times,serif" font-size="14.00" fill="#000000">type</text>
<polyline fill="none" stroke="#000000" points="1129.4209,-904.5 1129.4209,-948.5 "/>
<text text-anchor="middle" x="1139.1709" y="-922.3" font-family="Times,serif" font-size="14.00" fill="#000000"> </text>
</g>
</g>
</svg>
